<?xml version="1.0" standalone="no"?>
<!DOCTYPE svg PUBLIC "-//W3C//DTD SVG 20010904//EN"
 "http://www.w3.org/TR/2001/REC-SVG-20010904/DTD/svg10.dtd">
<svg version="1.0" xmlns="http://www.w3.org/2000/svg"
 width="95.000000pt" height="95.000000pt" viewBox="0 0 95.000000 95.000000"
 preserveAspectRatio="xMidYMid meet">

<g transform="translate(0.000000,95.000000) scale(0.100000,-0.100000)"
fill="#000000" stroke="none">
<path d="M375 833 c-77 -132 -179 -245 -284 -314 -13 -8 -22 -20 -20 -27 6
-17 150 67 225 131 57 48 105 100 162 173 l22 29 23 -29 c94 -121 182 -204
267 -250 l49 -26 17 30 c10 16 26 30 36 30 34 0 18 27 -24 39 -104 31 -274
145 -327 220 -18 26 -20 31 -7 31 9 0 16 6 16 14 0 11 -69 37 -97 36 -4 -1
-30 -40 -58 -87z"/>
<path d="M551 609 l-24 -32 -123 6 c-68 3 -124 3 -124 -1 1 -26 21 -33 81 -30
l64 3 3 -73 3 -73 -146 3 c-118 2 -144 0 -140 -10 3 -8 5 -17 5 -20 0 -4 63
-6 140 -4 l140 3 0 -147 0 -146 -165 4 c-137 3 -165 1 -160 -10 3 -8 5 -16 5
-18 0 -2 167 -4 370 -4 410 0 413 0 348 59 -42 38 -52 38 -80 1 l-22 -30 -108
0 -108 0 0 145 0 145 150 0 c170 0 178 4 109 60 l-42 33 -26 -31 c-25 -31 -28
-32 -108 -32 l-83 0 0 75 0 75 75 0 c84 0 93 10 45 47 -44 36 -54 36 -79 2z"/>
<path d="M225 330 c-3 -5 0 -20 6 -32 7 -13 22 -52 34 -88 19 -55 26 -65 48
-68 34 -4 51 26 36 64 -11 31 -96 134 -109 134 -5 0 -12 -4 -15 -10z"/>
<path d="M612 247 c-18 -50 -34 -98 -35 -106 -5 -36 26 -15 79 53 33 41 67 75
77 76 32 0 17 26 -28 48 -25 12 -49 22 -53 22 -4 0 -22 -42 -40 -93z"/>
</g>
</svg>
